<svg width="512" height="512" viewBox="0 0 512 512" xmlns="http://www.w3.org/2000/svg">
  <defs>
    <linearGradient id="grad1" x1="0%" y1="0%" x2="100%" y2="100%">
      <stop offset="0%" style="stop-color:#dc2626;stop-opacity:1" />
      <stop offset="100%" style="stop-color:#b91c1c;stop-opacity:1" />
    </linearGradient>
  </defs>
  
  <!-- Background -->
  <rect width="512" height="512" rx="80" fill="url(#grad1)"/>
  
  <!-- Delivery Box -->
  <rect x="150" y="180" width="212" height="160" rx="20" fill="white" opacity="0.95"/>
  <rect x="160" y="190" width="192" height="140" rx="15" fill="none" stroke="#dc2626" stroke-width="3" stroke-dasharray="10,5"/>
  
  <!-- Fork and Knife -->
  <g transform="translate(200, 220)">
    <!-- Fork -->
    <path d="M-20 0 L-20 60 M-25 0 L-25 25 M-20 0 L-20 25 M-15 0 L-15 25" stroke="white" stroke-width="4" fill="none" stroke-linecap="round"/>
    
    <!-- Knife -->
    <path d="M20 0 L20 60 M15 0 L25 0 L25 15 L20 15" stroke="white" stroke-width="4" fill="white" stroke-linecap="round"/>
  </g>
  
  <!-- Speed Lines -->
  <g stroke="white" stroke-width="6" stroke-linecap="round" opacity="0.8">
    <line x1="80" y1="120" x2="120" y2="120"/>
    <line x1="90" y1="140" x2="140" y2="140"/>
    <line x1="85" y1="160" x2="125" y2="160"/>
    
    <line x1="380" y1="350" x2="420" y2="350"/>
    <line x1="370" y1="370" x2="420" y2="370"/>
    <line x1="385" y1="390" x2="425" y2="390"/>
  </g>
  
  <!-- App Name -->
  <text x="256" y="450" font-family="Arial, sans-serif" font-size="36" font-weight="bold" text-anchor="middle" fill="white">
    DeliveryApp
  </text>
</svg>

